<svg viewBox="0 0 800 500" xmlns="http://www.w3.org/2000/svg" role="img" aria-label="Three different domains converging through analogy into a single engineering idea">
<defs>
  <filter id="g" x="-70%" y="-70%" width="240%" height="240%">
    <feGaussianBlur stdDeviation="2.6" result="b"/><feMerge><feMergeNode in="b"/><feMergeNode in="SourceGraphic"/></feMerge>
  </filter>
  <filter id="soft" x="-150%" y="-150%" width="400%" height="400%"><feGaussianBlur stdDeviation="10"/></filter>
  <radialGradient id="core" cx="50%" cy="50%" r="50%">
    <stop offset="0%" stop-color="#cfe3f0" stop-opacity="0.9"/>
    <stop offset="55%" stop-color="#68e3ff" stop-opacity="0.3"/>
    <stop offset="100%" stop-color="#68e3ff" stop-opacity="0"/>
  </radialGradient>
</defs>
<g fill="none">
<path d="M 254.5 156.0 Q 337.3 180.5 400 240" stroke="#45ddb0" stroke-width="1.3" opacity="0.45"/>
<circle cx="302.4" cy="173.9" r="2" fill="#45ddb0" opacity="0.5"/>
<circle cx="339.5" cy="193.6" r="2" fill="#45ddb0" opacity="0.5"/>
<circle cx="374.1" cy="217.6" r="2" fill="#45ddb0" opacity="0.5"/>
<path d="M 545.5 156.0 Q 482.8 215.5 400 240" stroke="#ffb25e" stroke-width="1.3" opacity="0.45"/>
<circle cx="506.1" cy="188.5" r="2" fill="#ffb25e" opacity="0.5"/>
<circle cx="470.5" cy="210.8" r="2" fill="#ffb25e" opacity="0.5"/>
<circle cx="432.3" cy="228.8" r="2" fill="#ffb25e" opacity="0.5"/>
<path d="M 400.0 408.0 Q 379.8 324.0 400 240" stroke="#8a6cff" stroke-width="1.3" opacity="0.45"/>
<circle cx="391.5" cy="357.6" r="2" fill="#8a6cff" opacity="0.5"/>
<circle cx="390.0" cy="315.6" r="2" fill="#8a6cff" opacity="0.5"/>
<circle cx="393.5" cy="273.6" r="2" fill="#8a6cff" opacity="0.5"/>
</g>
<g transform="translate(254.5,156.0)" stroke="#45ddb0" fill="none" stroke-linecap="round">
<path d="M 0 28 Q -4 0 0 -28" stroke-width="1.6" opacity="0.8"/>
<path d="M 0 10 Q -11.0 6 -22 2" stroke-width="1" opacity="0.55"/>
<path d="M -22 2 L -34 -10" stroke-width="0.8" opacity="0.44000000000000006"/>
<path d="M 0 10 Q 11.0 6 22 2" stroke-width="1" opacity="0.55"/>
<path d="M 22 2 L 34 -10" stroke-width="0.8" opacity="0.44000000000000006"/>
<path d="M 0 -6 Q -8.0 -10 -16 -14" stroke-width="1" opacity="0.5"/>
<path d="M -16 -14 L -28 -24" stroke-width="0.8" opacity="0.4"/>
<path d="M 0 -6 Q 8.0 -10 16 -14" stroke-width="1" opacity="0.5"/>
<path d="M 16 -14 L 28 -24" stroke-width="0.8" opacity="0.4"/>
<path d="M 0 -18 Q -5.0 -22 -10 -26" stroke-width="1" opacity="0.45"/>
<path d="M -10 -26 L -18 -34" stroke-width="0.8" opacity="0.36000000000000004"/>
<path d="M 0 -18 Q 5.0 -22 10 -26" stroke-width="1" opacity="0.45"/>
<path d="M 10 -26 L 18 -34" stroke-width="0.8" opacity="0.36000000000000004"/>
</g>
<g transform="translate(545.5,156.0)" stroke="#ffb25e" fill="none" stroke-linecap="round">
<path d="M -26 14 C -18 -22, 18 -22, 26 8" stroke-width="1.6" opacity="0.85"/>
<path d="M -4.40,-2.00 L -4.34,-1.70 L -4.33,-1.37 L -4.38,-1.03 L -4.50,-0.68 L -4.69,-0.35 L -4.95,-0.04 L -5.28,0.24 L -5.68,0.47 L -6.13,0.62 L -6.63,0.70 L -7.17,0.69 L -7.72,0.58 L -8.28,0.35 L -8.81,0.02 L -9.31,-0.44 L -9.73,-1.00 L -10.07,-1.67 L -10.30,-2.42 L -10.39,-3.25 L -10.32,-4.13 L -10.09,-5.04 L -9.68,-5.93 L -9.08,-6.78 L -8.30,-7.55 L -7.34,-8.21 L -6.22,-8.71 L -4.96,-9.01 L -3.59,-9.09 L -2.15,-8.92 L -0.69,-8.47 L 0.74,-7.72 L 2.09,-6.67 L 3.30,-5.32 L 4.29,-3.69 L 5.02,-1.81 L 5.42,0.28 L 5.44,2.53 L 5.04,4.87 L 4.18,7.23 L 2.83,9.53 L 1.00,11.65 L -1.30,13.52 L -4.05,15.02 L -7.19,16.07 L -10.66,16.56" stroke-width="1" opacity="0.55"/>
</g>
<g transform="translate(400.0,408.0)">
<path d="M 20.59,-3.26 L 27.75,-2.33 L 27.75,2.33 L 20.59,3.26 L 19.47,7.47 L 25.20,11.86 L 22.87,15.89 L 16.20,13.12 L 13.12,16.20 L 15.89,22.87 L 11.86,25.20 L 7.47,19.47 L 3.26,20.59 L 2.33,27.75 L -2.33,27.75 L -3.26,20.59 L -7.47,19.47 L -11.86,25.20 L -15.89,22.87 L -13.12,16.20 L -16.20,13.12 L -22.87,15.89 L -25.20,11.86 L -19.47,7.47 L -20.59,3.26 L -27.75,2.33 L -27.75,-2.33 L -20.59,-3.26 L -19.47,-7.47 L -25.20,-11.86 L -22.87,-15.89 L -16.20,-13.12 L -13.12,-16.20 L -15.89,-22.87 L -11.86,-25.20 L -7.47,-19.47 L -3.26,-20.59 L -2.33,-27.75 L 2.33,-27.75 L 3.26,-20.59 L 7.47,-19.47 L 11.86,-25.20 L 15.89,-22.87 L 13.12,-16.20 L 16.20,-13.12 L 22.87,-15.89 L 25.20,-11.86 L 19.47,-7.47 Z" fill="none" stroke="#8a6cff" stroke-width="1.3" opacity="0.85"/>
<circle cx="0" cy="0" r="9" fill="none" stroke="#8a6cff" stroke-width="1" opacity="0.8"/>
<circle cx="0" cy="0" r="3.5" fill="none" stroke="#8a6cff" stroke-width="0.8" opacity="0.7"/>
</g>
<text x="254.5" y="206.0" font-family="Sora, sans-serif" font-size="11" letter-spacing="0.14em" fill="#45ddb0" text-anchor="middle" opacity="0.65">NATURE</text>
<text x="545.5" y="206.0" font-family="Sora, sans-serif" font-size="11" letter-spacing="0.14em" fill="#ffb25e" text-anchor="middle" opacity="0.65">ART</text>
<text x="400.0" y="364.0" font-family="Sora, sans-serif" font-size="11" letter-spacing="0.14em" fill="#8a6cff" text-anchor="middle" opacity="0.65">ENGINEERING</text>
<circle cx="400" cy="240" r="34" fill="url(#core)" filter="url(#soft)"/>
<circle cx="400" cy="240" r="22" fill="none" stroke="#cfe3f0" stroke-width="1.2" opacity="0.6"/>
<circle cx="400" cy="240" r="14" fill="none" stroke="#68e3ff" stroke-width="1" opacity="0.55"/>
<polygon points="400.00,234.00 406.00,240.00 400.00,246.00 394.00,240.00" fill="#68e3ff" opacity="0.85" filter="url(#g)"/>
<circle cx="400" cy="240" r="172" fill="none" stroke="#cfe3f0" stroke-width="0.5" opacity="0.12"/>
<line x1="572.0" y1="240.0" x2="578.0" y2="240.0" stroke="#cfe3f0" stroke-width="0.6" opacity="0.18"/>
<line x1="566.1" y1="284.5" x2="571.9" y2="286.1" stroke="#cfe3f0" stroke-width="0.6" opacity="0.18"/>
<line x1="549.0" y1="326.0" x2="554.2" y2="329.0" stroke="#cfe3f0" stroke-width="0.6" opacity="0.18"/>
<line x1="521.6" y1="361.6" x2="525.9" y2="365.9" stroke="#cfe3f0" stroke-width="0.6" opacity="0.18"/>
<line x1="486.0" y1="389.0" x2="489.0" y2="394.2" stroke="#cfe3f0" stroke-width="0.6" opacity="0.18"/>
<line x1="444.5" y1="406.1" x2="446.1" y2="411.9" stroke="#cfe3f0" stroke-width="0.6" opacity="0.18"/>
<line x1="400.0" y1="412.0" x2="400.0" y2="418.0" stroke="#cfe3f0" stroke-width="0.6" opacity="0.18"/>
<line x1="355.5" y1="406.1" x2="353.9" y2="411.9" stroke="#cfe3f0" stroke-width="0.6" opacity="0.18"/>
<line x1="314.0" y1="389.0" x2="311.0" y2="394.2" stroke="#cfe3f0" stroke-width="0.6" opacity="0.18"/>
<line x1="278.4" y1="361.6" x2="274.1" y2="365.9" stroke="#cfe3f0" stroke-width="0.6" opacity="0.18"/>
<line x1="251.0" y1="326.0" x2="245.8" y2="329.0" stroke="#cfe3f0" stroke-width="0.6" opacity="0.18"/>
<line x1="233.9" y1="284.5" x2="228.1" y2="286.1" stroke="#cfe3f0" stroke-width="0.6" opacity="0.18"/>
<line x1="228.0" y1="240.0" x2="222.0" y2="240.0" stroke="#cfe3f0" stroke-width="0.6" opacity="0.18"/>
<line x1="233.9" y1="195.5" x2="228.1" y2="193.9" stroke="#cfe3f0" stroke-width="0.6" opacity="0.18"/>
<line x1="251.0" y1="154.0" x2="245.8" y2="151.0" stroke="#cfe3f0" stroke-width="0.6" opacity="0.18"/>
<line x1="278.4" y1="118.4" x2="274.1" y2="114.1" stroke="#cfe3f0" stroke-width="0.6" opacity="0.18"/>
<line x1="314.0" y1="91.0" x2="311.0" y2="85.8" stroke="#cfe3f0" stroke-width="0.6" opacity="0.18"/>
<line x1="355.5" y1="73.9" x2="353.9" y2="68.1" stroke="#cfe3f0" stroke-width="0.6" opacity="0.18"/>
<line x1="400.0" y1="68.0" x2="400.0" y2="62.0" stroke="#cfe3f0" stroke-width="0.6" opacity="0.18"/>
<line x1="444.5" y1="73.9" x2="446.1" y2="68.1" stroke="#cfe3f0" stroke-width="0.6" opacity="0.18"/>
<line x1="486.0" y1="91.0" x2="489.0" y2="85.8" stroke="#cfe3f0" stroke-width="0.6" opacity="0.18"/>
<line x1="521.6" y1="118.4" x2="525.9" y2="114.1" stroke="#cfe3f0" stroke-width="0.6" opacity="0.18"/>
<line x1="549.0" y1="154.0" x2="554.2" y2="151.0" stroke="#cfe3f0" stroke-width="0.6" opacity="0.18"/>
<line x1="566.1" y1="195.5" x2="571.9" y2="193.9" stroke="#cfe3f0" stroke-width="0.6" opacity="0.18"/>
</svg>