<svg width="900" height="1000" viewBox="0 0 900 1000" fill="none" xmlns="http://www.w3.org/2000/svg">
  <rect width="900" height="1000" fill="#0A1017"/>
  <rect x="44" y="44" width="812" height="912" rx="36" fill="url(#paint0_linear)" stroke="#74C6D7" stroke-opacity="0.2"/>
  <g opacity="0.5">
    <path d="M120 166H780" stroke="#294658" stroke-width="1.5"/>
    <path d="M120 250H780" stroke="#22394A" stroke-width="1.5"/>
    <path d="M120 334H780" stroke="#294658" stroke-width="1.5"/>
    <path d="M120 418H780" stroke="#22394A" stroke-width="1.5"/>
    <path d="M120 502H780" stroke="#294658" stroke-width="1.5"/>
    <path d="M120 586H780" stroke="#22394A" stroke-width="1.5"/>
    <path d="M120 670H780" stroke="#294658" stroke-width="1.5"/>
    <path d="M120 754H780" stroke="#22394A" stroke-width="1.5"/>
    <path d="M120 838H780" stroke="#294658" stroke-width="1.5"/>
    <path d="M180 124V876" stroke="#22394A" stroke-width="1.5"/>
    <path d="M300 124V876" stroke="#294658" stroke-width="1.5"/>
    <path d="M420 124V876" stroke="#22394A" stroke-width="1.5"/>
    <path d="M540 124V876" stroke="#294658" stroke-width="1.5"/>
    <path d="M660 124V876" stroke="#22394A" stroke-width="1.5"/>
  </g>
  <circle cx="660" cy="228" r="132" fill="url(#paint1_radial)" opacity="0.8"/>
  <circle cx="256" cy="720" r="156" fill="url(#paint2_radial)" opacity="0.55"/>
  <rect x="162" y="180" width="234" height="118" rx="24" fill="#0F1822" stroke="#37596B"/>
  <text x="194" y="228" fill="#E6EEF8" font-family="Arial, sans-serif" font-size="28" font-weight="700">Hero Visual</text>
  <text x="194" y="266" fill="#A7BBCF" font-family="Arial, sans-serif" font-size="24">Placeholder</text>
  <path d="M516 226H700" stroke="#7CCBDB" stroke-width="3" stroke-linecap="round"/>
  <path d="M516 270H628" stroke="#6BA7F0" stroke-width="3" stroke-linecap="round"/>
  <circle cx="486" cy="226" r="11" fill="#7CCBDB"/>
  <circle cx="486" cy="270" r="11" fill="#6BA7F0"/>
  <path d="M188 418C258 352 366 354 430 418C494 482 494 586 430 650C366 714 258 716 188 650" stroke="#7CCBDB" stroke-width="12" stroke-linecap="round"/>
  <path d="M266 482H502" stroke="#7CCBDB" stroke-width="10" stroke-linecap="round"/>
  <path d="M266 560H458" stroke="#6BA7F0" stroke-width="10" stroke-linecap="round"/>
  <rect x="520" y="480" width="176" height="176" rx="28" fill="#0E151F" stroke="#3A6075"/>
  <path d="M566 534H650" stroke="#C89E67" stroke-width="10" stroke-linecap="round"/>
  <path d="M566 580H648" stroke="#7CCBDB" stroke-width="10" stroke-linecap="round"/>
  <path d="M566 626H620" stroke="#6BA7F0" stroke-width="10" stroke-linecap="round"/>
  <text x="162" y="904" fill="#A7BBCF" font-family="Arial, sans-serif" font-size="24">
    Replace with portrait, robot platform, lab scene, or simulation still.
  </text>
  <defs>
    <linearGradient id="paint0_linear" x1="450" y1="44" x2="450" y2="956" gradientUnits="userSpaceOnUse">
      <stop stop-color="#101923"/>
      <stop offset="1" stop-color="#0A121A"/>
    </linearGradient>
    <radialGradient id="paint1_radial" cx="0" cy="0" r="1" gradientUnits="userSpaceOnUse" gradientTransform="translate(660 228) rotate(90) scale(132)">
      <stop stop-color="#6DBFD1"/>
      <stop offset="1" stop-color="#6DBFD1" stop-opacity="0"/>
    </radialGradient>
    <radialGradient id="paint2_radial" cx="0" cy="0" r="1" gradientUnits="userSpaceOnUse" gradientTransform="translate(256 720) rotate(90) scale(156)">
      <stop stop-color="#3C86EF"/>
      <stop offset="1" stop-color="#3C86EF" stop-opacity="0"/>
    </radialGradient>
  </defs>
</svg>
