<svg width="900" height="1000" viewBox="0 0 900 1000" fill="none" xmlns="http://www.w3.org/2000/svg">
  <rect width="900" height="1000" fill="#0B0D18"/>
  <rect x="42" y="42" width="816" height="916" rx="36" fill="url(#paint0_linear)" stroke="#67E4FF" stroke-opacity="0.2"/>
  <g opacity="0.48">
    <path d="M118 164H782" stroke="#26364A" stroke-width="1.5"/>
    <path d="M118 248H782" stroke="#1E2B3D" stroke-width="1.5"/>
    <path d="M118 332H782" stroke="#26364A" stroke-width="1.5"/>
    <path d="M118 416H782" stroke="#1E2B3D" stroke-width="1.5"/>
    <path d="M118 500H782" stroke="#26364A" stroke-width="1.5"/>
    <path d="M118 584H782" stroke="#1E2B3D" stroke-width="1.5"/>
    <path d="M118 668H782" stroke="#26364A" stroke-width="1.5"/>
    <path d="M118 752H782" stroke="#1E2B3D" stroke-width="1.5"/>
    <path d="M118 836H782" stroke="#26364A" stroke-width="1.5"/>
    <path d="M180 124V878" stroke="#203042" stroke-width="1.5"/>
    <path d="M300 124V878" stroke="#26364A" stroke-width="1.5"/>
    <path d="M420 124V878" stroke="#203042" stroke-width="1.5"/>
    <path d="M540 124V878" stroke="#26364A" stroke-width="1.5"/>
    <path d="M660 124V878" stroke="#203042" stroke-width="1.5"/>
  </g>
  <circle cx="666" cy="220" r="138" fill="url(#paint1_radial)" opacity="0.82"/>
  <circle cx="252" cy="726" r="160" fill="url(#paint2_radial)" opacity="0.56"/>
  <circle cx="592" cy="598" r="128" fill="url(#paint3_radial)" opacity="0.42"/>
  <rect x="160" y="180" width="240" height="122" rx="24" fill="#111A27" stroke="#415A72"/>
  <text x="192" y="228" fill="#EDF4FF" font-family="Arial, sans-serif" font-size="28" font-weight="700">Hero Visual</text>
  <text x="192" y="266" fill="#B5C4DA" font-family="Arial, sans-serif" font-size="24">Placeholder</text>
  <path d="M506 228H704" stroke="#67E4FF" stroke-width="3" stroke-linecap="round"/>
  <path d="M506 272H636" stroke="#8A6CFF" stroke-width="3" stroke-linecap="round"/>
  <circle cx="474" cy="228" r="11" fill="#67E4FF"/>
  <circle cx="474" cy="272" r="11" fill="#8A6CFF"/>
  <path d="M186 420C258 352 368 354 432 420C496 486 496 588 432 654C368 720 258 722 186 654" stroke="#67E4FF" stroke-width="12" stroke-linecap="round"/>
  <path d="M264 486H506" stroke="#67E4FF" stroke-width="10" stroke-linecap="round"/>
  <path d="M264 564H460" stroke="#8A6CFF" stroke-width="10" stroke-linecap="round"/>
  <rect x="520" y="478" width="182" height="182" rx="28" fill="#101722" stroke="#4A6179"/>
  <path d="M568 534H656" stroke="#FFB25E" stroke-width="10" stroke-linecap="round"/>
  <path d="M568 582H654" stroke="#67E4FF" stroke-width="10" stroke-linecap="round"/>
  <path d="M568 630H624" stroke="#8A6CFF" stroke-width="10" stroke-linecap="round"/>
  <text x="160" y="904" fill="#B5C4DA" font-family="Arial, sans-serif" font-size="24">
    Replace with portrait, lab scene, robot system, or simulation still.
  </text>
  <defs>
    <linearGradient id="paint0_linear" x1="450" y1="42" x2="450" y2="958" gradientUnits="userSpaceOnUse">
      <stop stop-color="#131A29"/>
      <stop offset="1" stop-color="#0B101A"/>
    </linearGradient>
    <radialGradient id="paint1_radial" cx="0" cy="0" r="1" gradientUnits="userSpaceOnUse" gradientTransform="translate(666 220) rotate(90) scale(138)">
      <stop stop-color="#8A6CFF"/>
      <stop offset="1" stop-color="#8A6CFF" stop-opacity="0"/>
    </radialGradient>
    <radialGradient id="paint2_radial" cx="0" cy="0" r="1" gradientUnits="userSpaceOnUse" gradientTransform="translate(252 726) rotate(90) scale(160)">
      <stop stop-color="#4F7CFF"/>
      <stop offset="1" stop-color="#4F7CFF" stop-opacity="0"/>
    </radialGradient>
    <radialGradient id="paint3_radial" cx="0" cy="0" r="1" gradientUnits="userSpaceOnUse" gradientTransform="translate(592 598) rotate(90) scale(128)">
      <stop stop-color="#FFB25E"/>
      <stop offset="1" stop-color="#FFB25E" stop-opacity="0"/>
    </radialGradient>
  </defs>
</svg>
