<svg viewBox="0 0 540 600" xmlns="http://www.w3.org/2000/svg" role="img" aria-label="Sanguine codex-style proportion study of a sensing machine, in the spirit of a Renaissance notebook">
<defs><clipPath id="cg1"><path d="M 334.34,321.14 L 350.64,324.37 L 350.64,335.63 L 334.34,338.86 L 332.28,350.51 L 346.50,359.13 L 342.65,369.71 L 326.22,367.17 L 320.30,377.42 L 330.71,390.38 L 323.48,399.00 L 308.91,391.00 L 299.84,398.60 L 305.19,414.35 L 295.45,419.97 L 284.49,407.47 L 273.37,411.51 L 273.02,428.14 L 261.94,430.09 L 255.92,414.59 L 244.08,414.59 L 238.06,430.09 L 226.98,428.14 L 226.63,411.51 L 215.51,407.47 L 204.55,419.97 L 194.81,414.35 L 200.16,398.60 L 191.09,391.00 L 176.52,399.00 L 169.29,390.38 L 179.70,377.42 L 173.78,367.17 L 157.35,369.71 L 153.50,359.13 L 167.72,350.51 L 165.66,338.86 L 149.36,335.63 L 149.36,324.37 L 165.66,321.14 L 167.72,309.49 L 153.50,300.87 L 157.35,290.29 L 173.78,292.83 L 179.70,282.58 L 169.29,269.62 L 176.52,261.00 L 191.09,269.00 L 200.16,261.40 L 194.81,245.65 L 204.55,240.03 L 215.51,252.53 L 226.63,248.49 L 226.98,231.86 L 238.06,229.91 L 244.08,245.41 L 255.92,245.41 L 261.94,229.91 L 273.02,231.86 L 273.37,248.49 L 284.49,252.53 L 295.45,240.03 L 305.19,245.65 L 299.84,261.40 L 308.91,269.00 L 323.48,261.00 L 330.71,269.62 L 320.30,282.58 L 326.22,292.83 L 342.65,290.29 L 346.50,300.87 L 332.28,309.49 Z"/></clipPath><clipPath id="cg2"><path d="M 380.39,223.03 L 394.58,229.34 L 391.58,239.55 L 376.24,237.19 L 370.91,245.48 L 379.43,258.46 L 371.39,265.42 L 359.76,255.14 L 350.79,259.24 L 350.94,274.76 L 340.42,276.28 L 336.19,261.33 L 326.43,259.93 L 318.16,273.08 L 308.49,268.66 L 313.01,253.80 L 305.56,247.35 L 291.50,253.94 L 285.75,244.99 L 297.59,234.94 L 294.81,225.48 L 279.42,223.42 L 279.42,212.79 L 294.81,210.73 L 297.59,201.27 L 285.75,191.21 L 291.50,182.27 L 305.56,188.86 L 313.01,182.40 L 308.49,167.55 L 318.16,163.13 L 326.43,176.27 L 336.19,174.87 L 340.42,159.93 L 350.94,161.44 L 350.79,176.97 L 359.76,181.07 L 371.39,170.78 L 379.43,177.75 L 370.91,190.72 L 376.24,199.02 L 391.58,196.66 L 394.58,206.86 L 380.39,213.17 Z"/></clipPath><clipPath id="shadow1"><rect x="140" y="330" width="110" height="110"/></clipPath><clipPath id="shadow2"><rect x="267.4239294962435" y="218.1024729878455" width="70" height="70"/></clipPath><filter id="g" x="-70%" y="-70%" width="240%" height="240%">
  <feGaussianBlur stdDeviation="2.6" result="b"/><feMerge><feMergeNode in="b"/><feMergeNode in="SourceGraphic"/></feMerge></filter>
<filter id="soft" x="-150%" y="-150%" width="400%" height="400%"><feGaussianBlur stdDeviation="9"/></filter>
<radialGradient id="iris" cx="50%" cy="45%" r="55%">
  <stop offset="0%" stop-color="#68e3ff" stop-opacity="1"/>
  <stop offset="40%" stop-color="#68e3ff" stop-opacity="0.35"/>
  <stop offset="100%" stop-color="#68e3ff" stop-opacity="0"/></radialGradient></defs>
<g fill="none" stroke-linecap="round">
<path d="M 269.90,299.86 L 269.91,299.84 L 269.92,299.83 L 269.94,299.81 L 269.95,299.80 L 269.97,299.79 L 269.99,299.79 L 270.02,299.78 L 270.04,299.78 L 270.06,299.77 L 270.09,299.77 L 270.11,299.78 L 270.14,299.78 L 270.17,299.79 L 270.19,299.80 L 270.22,299.82 L 270.24,299.84 L 270.26,299.86 L 270.29,299.88 L 270.31,299.91 L 270.32,299.93 L 270.34,299.97 L 270.35,300.00 L 270.36,300.04 L 270.36,300.07 L 270.37,300.11 L 270.36,300.15 L 270.36,300.20 L 270.35,300.24 L 270.33,300.28 L 270.31,300.32 L 270.29,300.36 L 270.26,300.40 L 270.22,300.44 L 270.18,300.47 L 270.14,300.50 L 270.09,300.53 L 270.04,300.55 L 269.98,300.57 L 269.92,300.58 L 269.86,300.59 L 269.80,300.59 L 269.73,300.59 L 269.66,300.57 L 269.60,300.56 L 269.53,300.53 L 269.46,300.49 L 269.40,300.45 L 269.33,300.40 L 269.28,300.34 L 269.22,300.28 L 269.17,300.20 L 269.13,300.12 L 269.10,300.04 L 269.07,299.94 L 269.05,299.85 L 269.04,299.75 L 269.04,299.64 L 269.05,299.53 L 269.08,299.42 L 269.11,299.31 L 269.16,299.20 L 269.22,299.10 L 269.29,298.99 L 269.38,298.89 L 269.48,298.80 L 269.59,298.72 L 269.71,298.64 L 269.84,298.58 L 269.98,298.52 L 270.13,298.48 L 270.29,298.46 L 270.46,298.45 L 270.63,298.45 L 270.81,298.48 L 270.99,298.52 L 271.16,298.59 L 271.34,298.67 L 271.51,298.77 L 271.68,298.90 L 271.83,299.04 L 271.98,299.20 L 272.11,299.39 L 272.23,299.59 L 272.33,299.81 L 272.41,300.04 L 272.47,300.29 L 272.50,300.55 L 272.51,300.83 L 272.49,301.11 L 272.44,301.39 L 272.36,301.68 L 272.25,301.97 L 272.11,302.25 L 271.93,302.52 L 271.72,302.79 L 271.48,303.04 L 271.21,303.27 L 270.90,303.48 L 270.57,303.66 L 270.20,303.82 L 269.82,303.94 L 269.41,304.02 L 268.98,304.06 L 268.53,304.06 L 268.08,304.02 L 267.61,303.92 L 267.15,303.78 L 266.68,303.58 L 266.23,303.33 L 265.79,303.03 L 265.37,302.68 L 264.97,302.27 L 264.61,301.81 L 264.28,301.30 L 264.00,300.75 L 263.76,300.15 L 263.59,299.51 L 263.47,298.84 L 263.42,298.14 L 263.44,297.41 L 263.54,296.67 L 263.71,295.92 L 263.97,295.16 L 264.31,294.42 L 264.74,293.69" stroke="#c9a06a" stroke-width="0.7" opacity="0.14"/>
<circle cx="270" cy="300" r="206" stroke="#c9a06a" stroke-width="1.3" opacity="0.55"/>
<circle cx="270" cy="300" r="199" stroke="#c9a06a" stroke-width="0.5" opacity="0.25"/>
<rect x="124.3" y="154.3" width="291.3" height="291.3" stroke="#a37e50" stroke-width="0.9" opacity="0.3"/>
<polygon points="270.00,94.00 476.00,300.00 270.00,506.00 64.00,300.00" stroke="#ffce8a" stroke-width="0.7" opacity="0.16"/>
<line x1="461.0" y1="300.0" x2="476.0" y2="300.0" stroke="#c9a06a" stroke-width="0.8" opacity="0.45"/>
<line x1="470.2" y1="317.5" x2="475.2" y2="318.0" stroke="#c9a06a" stroke-width="0.5" opacity="0.22"/>
<line x1="467.9" y1="334.9" x2="472.9" y2="335.8" stroke="#c9a06a" stroke-width="0.5" opacity="0.22"/>
<line x1="464.2" y1="352.0" x2="469.0" y2="353.3" stroke="#c9a06a" stroke-width="0.5" opacity="0.22"/>
<line x1="458.9" y1="368.7" x2="463.6" y2="370.5" stroke="#c9a06a" stroke-width="0.5" opacity="0.22"/>
<line x1="452.2" y1="384.9" x2="456.7" y2="387.1" stroke="#c9a06a" stroke-width="0.5" opacity="0.22"/>
<line x1="439.7" y1="398.0" x2="448.4" y2="403.0" stroke="#c9a06a" stroke-width="0.8" opacity="0.45"/>
<line x1="434.6" y1="415.3" x2="438.7" y2="418.2" stroke="#c9a06a" stroke-width="0.5" opacity="0.22"/>
<line x1="424.0" y1="429.2" x2="427.8" y2="432.4" stroke="#c9a06a" stroke-width="0.5" opacity="0.22"/>
<line x1="412.1" y1="442.1" x2="415.7" y2="445.7" stroke="#c9a06a" stroke-width="0.5" opacity="0.22"/>
<line x1="399.2" y1="454.0" x2="402.4" y2="457.8" stroke="#c9a06a" stroke-width="0.5" opacity="0.22"/>
<line x1="385.3" y1="464.6" x2="388.2" y2="468.7" stroke="#c9a06a" stroke-width="0.5" opacity="0.22"/>
<line x1="368.0" y1="469.7" x2="373.0" y2="478.4" stroke="#c9a06a" stroke-width="0.8" opacity="0.45"/>
<line x1="354.9" y1="482.2" x2="357.1" y2="486.7" stroke="#c9a06a" stroke-width="0.5" opacity="0.22"/>
<line x1="338.7" y1="488.9" x2="340.5" y2="493.6" stroke="#c9a06a" stroke-width="0.5" opacity="0.22"/>
<line x1="322.0" y1="494.2" x2="323.3" y2="499.0" stroke="#c9a06a" stroke-width="0.5" opacity="0.22"/>
<line x1="304.9" y1="497.9" x2="305.8" y2="502.9" stroke="#c9a06a" stroke-width="0.5" opacity="0.22"/>
<line x1="287.5" y1="500.2" x2="288.0" y2="505.2" stroke="#c9a06a" stroke-width="0.5" opacity="0.22"/>
<line x1="270.0" y1="491.0" x2="270.0" y2="506.0" stroke="#c9a06a" stroke-width="0.8" opacity="0.45"/>
<line x1="252.5" y1="500.2" x2="252.0" y2="505.2" stroke="#c9a06a" stroke-width="0.5" opacity="0.22"/>
<line x1="235.1" y1="497.9" x2="234.2" y2="502.9" stroke="#c9a06a" stroke-width="0.5" opacity="0.22"/>
<line x1="218.0" y1="494.2" x2="216.7" y2="499.0" stroke="#c9a06a" stroke-width="0.5" opacity="0.22"/>
<line x1="201.3" y1="488.9" x2="199.5" y2="493.6" stroke="#c9a06a" stroke-width="0.5" opacity="0.22"/>
<line x1="185.1" y1="482.2" x2="182.9" y2="486.7" stroke="#c9a06a" stroke-width="0.5" opacity="0.22"/>
<line x1="172.0" y1="469.7" x2="167.0" y2="478.4" stroke="#c9a06a" stroke-width="0.8" opacity="0.45"/>
<line x1="154.7" y1="464.6" x2="151.8" y2="468.7" stroke="#c9a06a" stroke-width="0.5" opacity="0.22"/>
<line x1="140.8" y1="454.0" x2="137.6" y2="457.8" stroke="#c9a06a" stroke-width="0.5" opacity="0.22"/>
<line x1="127.9" y1="442.1" x2="124.3" y2="445.7" stroke="#c9a06a" stroke-width="0.5" opacity="0.22"/>
<line x1="116.0" y1="429.2" x2="112.2" y2="432.4" stroke="#c9a06a" stroke-width="0.5" opacity="0.22"/>
<line x1="105.4" y1="415.3" x2="101.3" y2="418.2" stroke="#c9a06a" stroke-width="0.5" opacity="0.22"/>
<line x1="100.3" y1="398.0" x2="91.6" y2="403.0" stroke="#c9a06a" stroke-width="0.8" opacity="0.45"/>
<line x1="87.8" y1="384.9" x2="83.3" y2="387.1" stroke="#c9a06a" stroke-width="0.5" opacity="0.22"/>
<line x1="81.1" y1="368.7" x2="76.4" y2="370.5" stroke="#c9a06a" stroke-width="0.5" opacity="0.22"/>
<line x1="75.8" y1="352.0" x2="71.0" y2="353.3" stroke="#c9a06a" stroke-width="0.5" opacity="0.22"/>
<line x1="72.1" y1="334.9" x2="67.1" y2="335.8" stroke="#c9a06a" stroke-width="0.5" opacity="0.22"/>
<line x1="69.8" y1="317.5" x2="64.8" y2="318.0" stroke="#c9a06a" stroke-width="0.5" opacity="0.22"/>
<line x1="79.0" y1="300.0" x2="64.0" y2="300.0" stroke="#c9a06a" stroke-width="0.8" opacity="0.45"/>
<line x1="69.8" y1="282.5" x2="64.8" y2="282.0" stroke="#c9a06a" stroke-width="0.5" opacity="0.22"/>
<line x1="72.1" y1="265.1" x2="67.1" y2="264.2" stroke="#c9a06a" stroke-width="0.5" opacity="0.22"/>
<line x1="75.8" y1="248.0" x2="71.0" y2="246.7" stroke="#c9a06a" stroke-width="0.5" opacity="0.22"/>
<line x1="81.1" y1="231.3" x2="76.4" y2="229.5" stroke="#c9a06a" stroke-width="0.5" opacity="0.22"/>
<line x1="87.8" y1="215.1" x2="83.3" y2="212.9" stroke="#c9a06a" stroke-width="0.5" opacity="0.22"/>
<line x1="100.3" y1="202.0" x2="91.6" y2="197.0" stroke="#c9a06a" stroke-width="0.8" opacity="0.45"/>
<line x1="105.4" y1="184.7" x2="101.3" y2="181.8" stroke="#c9a06a" stroke-width="0.5" opacity="0.22"/>
<line x1="116.0" y1="170.8" x2="112.2" y2="167.6" stroke="#c9a06a" stroke-width="0.5" opacity="0.22"/>
<line x1="127.9" y1="157.9" x2="124.3" y2="154.3" stroke="#c9a06a" stroke-width="0.5" opacity="0.22"/>
<line x1="140.8" y1="146.0" x2="137.6" y2="142.2" stroke="#c9a06a" stroke-width="0.5" opacity="0.22"/>
<line x1="154.7" y1="135.4" x2="151.8" y2="131.3" stroke="#c9a06a" stroke-width="0.5" opacity="0.22"/>
<line x1="172.0" y1="130.3" x2="167.0" y2="121.6" stroke="#c9a06a" stroke-width="0.8" opacity="0.45"/>
<line x1="185.1" y1="117.8" x2="182.9" y2="113.3" stroke="#c9a06a" stroke-width="0.5" opacity="0.22"/>
<line x1="201.3" y1="111.1" x2="199.5" y2="106.4" stroke="#c9a06a" stroke-width="0.5" opacity="0.22"/>
<line x1="218.0" y1="105.8" x2="216.7" y2="101.0" stroke="#c9a06a" stroke-width="0.5" opacity="0.22"/>
<line x1="235.1" y1="102.1" x2="234.2" y2="97.1" stroke="#c9a06a" stroke-width="0.5" opacity="0.22"/>
<line x1="252.5" y1="99.8" x2="252.0" y2="94.8" stroke="#c9a06a" stroke-width="0.5" opacity="0.22"/>
<line x1="270.0" y1="109.0" x2="270.0" y2="94.0" stroke="#c9a06a" stroke-width="0.8" opacity="0.45"/>
<line x1="287.5" y1="99.8" x2="288.0" y2="94.8" stroke="#c9a06a" stroke-width="0.5" opacity="0.22"/>
<line x1="304.9" y1="102.1" x2="305.8" y2="97.1" stroke="#c9a06a" stroke-width="0.5" opacity="0.22"/>
<line x1="322.0" y1="105.8" x2="323.3" y2="101.0" stroke="#c9a06a" stroke-width="0.5" opacity="0.22"/>
<line x1="338.7" y1="111.1" x2="340.5" y2="106.4" stroke="#c9a06a" stroke-width="0.5" opacity="0.22"/>
<line x1="354.9" y1="117.8" x2="357.1" y2="113.3" stroke="#c9a06a" stroke-width="0.5" opacity="0.22"/>
<line x1="368.0" y1="130.3" x2="373.0" y2="121.6" stroke="#c9a06a" stroke-width="0.8" opacity="0.45"/>
<line x1="385.3" y1="135.4" x2="388.2" y2="131.3" stroke="#c9a06a" stroke-width="0.5" opacity="0.22"/>
<line x1="399.2" y1="146.0" x2="402.4" y2="142.2" stroke="#c9a06a" stroke-width="0.5" opacity="0.22"/>
<line x1="412.1" y1="157.9" x2="415.7" y2="154.3" stroke="#c9a06a" stroke-width="0.5" opacity="0.22"/>
<line x1="424.0" y1="170.8" x2="427.8" y2="167.6" stroke="#c9a06a" stroke-width="0.5" opacity="0.22"/>
<line x1="434.6" y1="184.7" x2="438.7" y2="181.8" stroke="#c9a06a" stroke-width="0.5" opacity="0.22"/>
<line x1="439.7" y1="202.0" x2="448.4" y2="197.0" stroke="#c9a06a" stroke-width="0.8" opacity="0.45"/>
<line x1="452.2" y1="215.1" x2="456.7" y2="212.9" stroke="#c9a06a" stroke-width="0.5" opacity="0.22"/>
<line x1="458.9" y1="231.3" x2="463.6" y2="229.5" stroke="#c9a06a" stroke-width="0.5" opacity="0.22"/>
<line x1="464.2" y1="248.0" x2="469.0" y2="246.7" stroke="#c9a06a" stroke-width="0.5" opacity="0.22"/>
<line x1="467.9" y1="265.1" x2="472.9" y2="264.2" stroke="#c9a06a" stroke-width="0.5" opacity="0.22"/>
<line x1="470.2" y1="282.5" x2="475.2" y2="282.0" stroke="#c9a06a" stroke-width="0.5" opacity="0.22"/>
</g>
<g fill="none">
<path d="M 146 303 A 29 29 0 0 1 146 361" stroke="#a37e50" stroke-width="0.7" opacity="0.22" transform="rotate(0 146 332)"/>
<path d="M 146 289 A 43 43 0 0 1 146 375" stroke="#a37e50" stroke-width="0.7" opacity="0.18" transform="rotate(0 146 332)"/>
<path d="M 146 275 A 57 57 0 0 1 146 389" stroke="#a37e50" stroke-width="0.7" opacity="0.14" transform="rotate(0 146 332)"/>
<path d="M 146 261 A 71 71 0 0 1 146 403" stroke="#a37e50" stroke-width="0.7" opacity="0.10" transform="rotate(0 146 332)"/>
<path d="M 146 247 A 85 85 0 0 1 146 417" stroke="#a37e50" stroke-width="0.7" opacity="0.06" transform="rotate(0 146 332)"/>
<path d="M 394 303 A 29 29 0 0 1 394 361" stroke="#a37e50" stroke-width="0.7" opacity="0.22" transform="rotate(180 394 332)"/>
<path d="M 394 289 A 43 43 0 0 1 394 375" stroke="#a37e50" stroke-width="0.7" opacity="0.18" transform="rotate(180 394 332)"/>
<path d="M 394 275 A 57 57 0 0 1 394 389" stroke="#a37e50" stroke-width="0.7" opacity="0.14" transform="rotate(180 394 332)"/>
<path d="M 394 261 A 71 71 0 0 1 394 403" stroke="#a37e50" stroke-width="0.7" opacity="0.10" transform="rotate(180 394 332)"/>
<path d="M 394 247 A 85 85 0 0 1 394 417" stroke="#a37e50" stroke-width="0.7" opacity="0.06" transform="rotate(180 394 332)"/>
</g>
<g clip-path="url(#cg1)" stroke="#b78a55" stroke-width="0.5" opacity="0.16"><line x1="-81.6" y1="397.1" x2="395.3" y2="24.4"/><line x1="-79.1" y1="400.4" x2="397.9" y2="27.7"/><line x1="-76.5" y1="403.7" x2="400.5" y2="31.1"/><line x1="-73.9" y1="407.0" x2="403.1" y2="34.4"/><line x1="-71.3" y1="410.3" x2="405.7" y2="37.7"/><line x1="-68.7" y1="413.6" x2="408.3" y2="41.0"/><line x1="-66.1" y1="416.9" x2="410.8" y2="44.3"/><line x1="-63.5" y1="420.2" x2="413.4" y2="47.6"/><line x1="-61.0" y1="423.6" x2="416.0" y2="50.9"/><line x1="-58.4" y1="426.9" x2="418.6" y2="54.2"/><line x1="-55.8" y1="430.2" x2="421.2" y2="57.5"/><line x1="-53.2" y1="433.5" x2="423.8" y2="60.8"/><line x1="-50.6" y1="436.8" x2="426.4" y2="64.1"/><line x1="-48.0" y1="440.1" x2="428.9" y2="67.5"/><line x1="-45.4" y1="443.4" x2="431.5" y2="70.8"/><line x1="-42.9" y1="446.7" x2="434.1" y2="74.1"/><line x1="-40.3" y1="450.0" x2="436.7" y2="77.4"/><line x1="-37.7" y1="453.3" x2="439.3" y2="80.7"/><line x1="-35.1" y1="456.7" x2="441.9" y2="84.0"/><line x1="-32.5" y1="460.0" x2="444.5" y2="87.3"/><line x1="-29.9" y1="463.3" x2="447.0" y2="90.6"/><line x1="-27.3" y1="466.6" x2="449.6" y2="93.9"/><line x1="-24.8" y1="469.9" x2="452.2" y2="97.2"/><line x1="-22.2" y1="473.2" x2="454.8" y2="100.6"/><line x1="-19.6" y1="476.5" x2="457.4" y2="103.9"/><line x1="-17.0" y1="479.8" x2="460.0" y2="107.2"/><line x1="-14.4" y1="483.1" x2="462.6" y2="110.5"/><line x1="-11.8" y1="486.4" x2="465.1" y2="113.8"/><line x1="-9.2" y1="489.8" x2="467.7" y2="117.1"/><line x1="-6.7" y1="493.1" x2="470.3" y2="120.4"/><line x1="-4.1" y1="496.4" x2="472.9" y2="123.7"/><line x1="-1.5" y1="499.7" x2="475.5" y2="127.0"/><line x1="1.1" y1="503.0" x2="478.1" y2="130.3"/><line x1="3.7" y1="506.3" x2="480.7" y2="133.7"/><line x1="6.3" y1="509.6" x2="483.2" y2="137.0"/><line x1="8.9" y1="512.9" x2="485.8" y2="140.3"/><line x1="11.4" y1="516.2" x2="488.4" y2="143.6"/><line x1="14.0" y1="519.5" x2="491.0" y2="146.9"/><line x1="16.6" y1="522.8" x2="493.6" y2="150.2"/><line x1="19.2" y1="526.2" x2="496.2" y2="153.5"/><line x1="21.8" y1="529.5" x2="498.8" y2="156.8"/><line x1="24.4" y1="532.8" x2="501.3" y2="160.1"/><line x1="27.0" y1="536.1" x2="503.9" y2="163.4"/><line x1="29.5" y1="539.4" x2="506.5" y2="166.7"/><line x1="32.1" y1="542.7" x2="509.1" y2="170.1"/><line x1="34.7" y1="546.0" x2="511.7" y2="173.4"/><line x1="37.3" y1="549.3" x2="514.3" y2="176.7"/><line x1="39.9" y1="552.6" x2="516.9" y2="180.0"/><line x1="42.5" y1="555.9" x2="519.4" y2="183.3"/><line x1="45.1" y1="559.3" x2="522.0" y2="186.6"/><line x1="47.6" y1="562.6" x2="524.6" y2="189.9"/><line x1="50.2" y1="565.9" x2="527.2" y2="193.2"/><line x1="52.8" y1="569.2" x2="529.8" y2="196.5"/><line x1="55.4" y1="572.5" x2="532.4" y2="199.8"/><line x1="58.0" y1="575.8" x2="535.0" y2="203.2"/><line x1="60.6" y1="579.1" x2="537.5" y2="206.5"/><line x1="63.2" y1="582.4" x2="540.1" y2="209.8"/><line x1="65.7" y1="585.7" x2="542.7" y2="213.1"/><line x1="68.3" y1="589.0" x2="545.3" y2="216.4"/><line x1="70.9" y1="592.4" x2="547.9" y2="219.7"/><line x1="73.5" y1="595.7" x2="550.5" y2="223.0"/><line x1="76.1" y1="599.0" x2="553.1" y2="226.3"/><line x1="78.7" y1="602.3" x2="555.6" y2="229.6"/><line x1="81.3" y1="605.6" x2="558.2" y2="232.9"/><line x1="83.8" y1="608.9" x2="560.8" y2="236.2"/><line x1="86.4" y1="612.2" x2="563.4" y2="239.6"/><line x1="89.0" y1="615.5" x2="566.0" y2="242.9"/><line x1="91.6" y1="618.8" x2="568.6" y2="246.2"/><line x1="94.2" y1="622.1" x2="571.2" y2="249.5"/><line x1="96.8" y1="625.4" x2="573.7" y2="252.8"/><line x1="99.4" y1="628.8" x2="576.3" y2="256.1"/><line x1="101.9" y1="632.1" x2="578.9" y2="259.4"/><line x1="104.5" y1="635.4" x2="581.5" y2="262.7"/></g><g clip-path="url(#cg1)"><g clip-path="url(#shadow1)" stroke="#b78a55" stroke-width="0.5" opacity="0.22"><line x1="182.9" y1="-1.6" x2="555.6" y2="475.3"/><line x1="179.6" y1="0.9" x2="552.3" y2="477.9"/><line x1="176.3" y1="3.5" x2="548.9" y2="480.5"/><line x1="173.0" y1="6.1" x2="545.6" y2="483.1"/><line x1="169.7" y1="8.7" x2="542.3" y2="485.7"/><line x1="166.4" y1="11.3" x2="539.0" y2="488.3"/><line x1="163.1" y1="13.9" x2="535.7" y2="490.8"/><line x1="159.8" y1="16.5" x2="532.4" y2="493.4"/><line x1="156.4" y1="19.0" x2="529.1" y2="496.0"/><line x1="153.1" y1="21.6" x2="525.8" y2="498.6"/><line x1="149.8" y1="24.2" x2="522.5" y2="501.2"/><line x1="146.5" y1="26.8" x2="519.2" y2="503.8"/><line x1="143.2" y1="29.4" x2="515.9" y2="506.4"/><line x1="139.9" y1="32.0" x2="512.5" y2="508.9"/><line x1="136.6" y1="34.6" x2="509.2" y2="511.5"/><line x1="133.3" y1="37.1" x2="505.9" y2="514.1"/><line x1="130.0" y1="39.7" x2="502.6" y2="516.7"/><line x1="126.7" y1="42.3" x2="499.3" y2="519.3"/><line x1="123.3" y1="44.9" x2="496.0" y2="521.9"/><line x1="120.0" y1="47.5" x2="492.7" y2="524.5"/><line x1="116.7" y1="50.1" x2="489.4" y2="527.0"/><line x1="113.4" y1="52.7" x2="486.1" y2="529.6"/><line x1="110.1" y1="55.2" x2="482.8" y2="532.2"/><line x1="106.8" y1="57.8" x2="479.4" y2="534.8"/><line x1="103.5" y1="60.4" x2="476.1" y2="537.4"/><line x1="100.2" y1="63.0" x2="472.8" y2="540.0"/><line x1="96.9" y1="65.6" x2="469.5" y2="542.6"/><line x1="93.6" y1="68.2" x2="466.2" y2="545.1"/><line x1="90.2" y1="70.8" x2="462.9" y2="547.7"/><line x1="86.9" y1="73.3" x2="459.6" y2="550.3"/><line x1="83.6" y1="75.9" x2="456.3" y2="552.9"/><line x1="80.3" y1="78.5" x2="453.0" y2="555.5"/><line x1="77.0" y1="81.1" x2="449.7" y2="558.1"/><line x1="73.7" y1="83.7" x2="446.3" y2="560.7"/><line x1="70.4" y1="86.3" x2="443.0" y2="563.2"/><line x1="67.1" y1="88.9" x2="439.7" y2="565.8"/><line x1="63.8" y1="91.4" x2="436.4" y2="568.4"/><line x1="60.5" y1="94.0" x2="433.1" y2="571.0"/><line x1="57.2" y1="96.6" x2="429.8" y2="573.6"/><line x1="53.8" y1="99.2" x2="426.5" y2="576.2"/><line x1="50.5" y1="101.8" x2="423.2" y2="578.8"/><line x1="47.2" y1="104.4" x2="419.9" y2="581.3"/><line x1="43.9" y1="107.0" x2="416.6" y2="583.9"/><line x1="40.6" y1="109.5" x2="413.3" y2="586.5"/><line x1="37.3" y1="112.1" x2="409.9" y2="589.1"/><line x1="34.0" y1="114.7" x2="406.6" y2="591.7"/><line x1="30.7" y1="117.3" x2="403.3" y2="594.3"/><line x1="27.4" y1="119.9" x2="400.0" y2="596.9"/><line x1="24.1" y1="122.5" x2="396.7" y2="599.4"/><line x1="20.7" y1="125.1" x2="393.4" y2="602.0"/><line x1="17.4" y1="127.6" x2="390.1" y2="604.6"/><line x1="14.1" y1="130.2" x2="386.8" y2="607.2"/><line x1="10.8" y1="132.8" x2="383.5" y2="609.8"/><line x1="7.5" y1="135.4" x2="380.2" y2="612.4"/><line x1="4.2" y1="138.0" x2="376.8" y2="615.0"/><line x1="0.9" y1="140.6" x2="373.5" y2="617.5"/><line x1="-2.4" y1="143.2" x2="370.2" y2="620.1"/><line x1="-5.7" y1="145.7" x2="366.9" y2="622.7"/><line x1="-9.0" y1="148.3" x2="363.6" y2="625.3"/><line x1="-12.4" y1="150.9" x2="360.3" y2="627.9"/><line x1="-15.7" y1="153.5" x2="357.0" y2="630.5"/><line x1="-19.0" y1="156.1" x2="353.7" y2="633.1"/><line x1="-22.3" y1="158.7" x2="350.4" y2="635.6"/><line x1="-25.6" y1="161.3" x2="347.1" y2="638.2"/><line x1="-28.9" y1="163.8" x2="343.8" y2="640.8"/><line x1="-32.2" y1="166.4" x2="340.4" y2="643.4"/><line x1="-35.5" y1="169.0" x2="337.1" y2="646.0"/><line x1="-38.8" y1="171.6" x2="333.8" y2="648.6"/><line x1="-42.1" y1="174.2" x2="330.5" y2="651.2"/><line x1="-45.4" y1="176.8" x2="327.2" y2="653.7"/><line x1="-48.8" y1="179.4" x2="323.9" y2="656.3"/><line x1="-52.1" y1="181.9" x2="320.6" y2="658.9"/><line x1="-55.4" y1="184.5" x2="317.3" y2="661.5"/></g></g><path d="M 334.34,321.14 L 350.64,324.37 L 350.64,335.63 L 334.34,338.86 L 332.28,350.51 L 346.50,359.13 L 342.65,369.71 L 326.22,367.17 L 320.30,377.42 L 330.71,390.38 L 323.48,399.00 L 308.91,391.00 L 299.84,398.60 L 305.19,414.35 L 295.45,419.97 L 284.49,407.47 L 273.37,411.51 L 273.02,428.14 L 261.94,430.09 L 255.92,414.59 L 244.08,414.59 L 238.06,430.09 L 226.98,428.14 L 226.63,411.51 L 215.51,407.47 L 204.55,419.97 L 194.81,414.35 L 200.16,398.60 L 191.09,391.00 L 176.52,399.00 L 169.29,390.38 L 179.70,377.42 L 173.78,367.17 L 157.35,369.71 L 153.50,359.13 L 167.72,350.51 L 165.66,338.86 L 149.36,335.63 L 149.36,324.37 L 165.66,321.14 L 167.72,309.49 L 153.50,300.87 L 157.35,290.29 L 173.78,292.83 L 179.70,282.58 L 169.29,269.62 L 176.52,261.00 L 191.09,269.00 L 200.16,261.40 L 194.81,245.65 L 204.55,240.03 L 215.51,252.53 L 226.63,248.49 L 226.98,231.86 L 238.06,229.91 L 244.08,245.41 L 255.92,245.41 L 261.94,229.91 L 273.02,231.86 L 273.37,248.49 L 284.49,252.53 L 295.45,240.03 L 305.19,245.65 L 299.84,261.40 L 308.91,269.00 L 323.48,261.00 L 330.71,269.62 L 320.30,282.58 L 326.22,292.83 L 342.65,290.29 L 346.50,300.87 L 332.28,309.49 Z" fill="none" stroke="#c9a06a" stroke-width="1.4" opacity="0.7"/><circle cx="250" cy="330" r="84.8" fill="none" stroke="#c9a06a" stroke-width="0.6" opacity="0.35"/><circle cx="250" cy="330" r="27.6" fill="none" stroke="#c9a06a" stroke-width="1" opacity="0.7"/><circle cx="250" cy="330" r="11.0" fill="none" stroke="#c9a06a" stroke-width="0.8" opacity="0.7"/><line x1="277.6" y1="330.0" x2="330.8" y2="330.0" stroke="#c9a06a" stroke-width="0.7" opacity="0.385"/><line x1="263.8" y1="353.9" x2="290.4" y2="400.0" stroke="#c9a06a" stroke-width="0.7" opacity="0.385"/><line x1="236.2" y1="353.9" x2="209.6" y2="400.0" stroke="#c9a06a" stroke-width="0.7" opacity="0.385"/><line x1="222.4" y1="330.0" x2="169.2" y2="330.0" stroke="#c9a06a" stroke-width="0.7" opacity="0.385"/><line x1="236.2" y1="306.1" x2="209.6" y2="260.0" stroke="#c9a06a" stroke-width="0.7" opacity="0.385"/><line x1="263.8" y1="306.1" x2="290.4" y2="260.0" stroke="#c9a06a" stroke-width="0.7" opacity="0.385"/><circle cx="299.4" cy="358.5" r="6.9" fill="none" stroke="#c9a06a" stroke-width="0.6" opacity="0.42"/><circle cx="250.0" cy="387.0" r="6.9" fill="none" stroke="#c9a06a" stroke-width="0.6" opacity="0.42"/><circle cx="200.6" cy="358.5" r="6.9" fill="none" stroke="#c9a06a" stroke-width="0.6" opacity="0.42"/><circle cx="200.6" cy="301.5" r="6.9" fill="none" stroke="#c9a06a" stroke-width="0.6" opacity="0.42"/><circle cx="250.0" cy="273.0" r="6.9" fill="none" stroke="#c9a06a" stroke-width="0.6" opacity="0.42"/><circle cx="299.4" cy="301.5" r="6.9" fill="none" stroke="#c9a06a" stroke-width="0.6" opacity="0.42"/>
<g clip-path="url(#cg2)" stroke="#b78a55" stroke-width="0.5" opacity="0.16"><line x1="136.0" y1="258.9" x2="425.7" y2="32.5"/><line x1="138.5" y1="262.2" x2="428.3" y2="35.8"/><line x1="141.1" y1="265.5" x2="430.9" y2="39.1"/><line x1="143.7" y1="268.8" x2="433.5" y2="42.4"/><line x1="146.3" y1="272.1" x2="436.0" y2="45.7"/><line x1="148.9" y1="275.4" x2="438.6" y2="49.0"/><line x1="151.5" y1="278.7" x2="441.2" y2="52.3"/><line x1="154.1" y1="282.0" x2="443.8" y2="55.6"/><line x1="156.6" y1="285.3" x2="446.4" y2="59.0"/><line x1="159.2" y1="288.6" x2="449.0" y2="62.3"/><line x1="161.8" y1="291.9" x2="451.6" y2="65.6"/><line x1="164.4" y1="295.3" x2="454.1" y2="68.9"/><line x1="167.0" y1="298.6" x2="456.7" y2="72.2"/><line x1="169.6" y1="301.9" x2="459.3" y2="75.5"/><line x1="172.2" y1="305.2" x2="461.9" y2="78.8"/><line x1="174.7" y1="308.5" x2="464.5" y2="82.1"/><line x1="177.3" y1="311.8" x2="467.1" y2="85.4"/><line x1="179.9" y1="315.1" x2="469.7" y2="88.7"/><line x1="182.5" y1="318.4" x2="472.2" y2="92.1"/><line x1="185.1" y1="321.7" x2="474.8" y2="95.4"/><line x1="187.7" y1="325.0" x2="477.4" y2="98.7"/><line x1="190.3" y1="328.4" x2="480.0" y2="102.0"/><line x1="192.8" y1="331.7" x2="482.6" y2="105.3"/><line x1="195.4" y1="335.0" x2="485.2" y2="108.6"/><line x1="198.0" y1="338.3" x2="487.8" y2="111.9"/><line x1="200.6" y1="341.6" x2="490.3" y2="115.2"/><line x1="203.2" y1="344.9" x2="492.9" y2="118.5"/><line x1="205.8" y1="348.2" x2="495.5" y2="121.8"/><line x1="208.4" y1="351.5" x2="498.1" y2="125.1"/><line x1="210.9" y1="354.8" x2="500.7" y2="128.5"/><line x1="213.5" y1="358.1" x2="503.3" y2="131.8"/><line x1="216.1" y1="361.5" x2="505.9" y2="135.1"/><line x1="218.7" y1="364.8" x2="508.4" y2="138.4"/><line x1="221.3" y1="368.1" x2="511.0" y2="141.7"/><line x1="223.9" y1="371.4" x2="513.6" y2="145.0"/><line x1="226.5" y1="374.7" x2="516.2" y2="148.3"/><line x1="229.0" y1="378.0" x2="518.8" y2="151.6"/><line x1="231.6" y1="381.3" x2="521.4" y2="154.9"/><line x1="234.2" y1="384.6" x2="524.0" y2="158.2"/><line x1="236.8" y1="387.9" x2="526.5" y2="161.6"/><line x1="239.4" y1="391.2" x2="529.1" y2="164.9"/><line x1="242.0" y1="394.5" x2="531.7" y2="168.2"/><line x1="244.6" y1="397.9" x2="534.3" y2="171.5"/><line x1="247.1" y1="401.2" x2="536.9" y2="174.8"/></g><g clip-path="url(#cg2)"><g clip-path="url(#shadow2)" stroke="#b78a55" stroke-width="0.5" opacity="0.22"><line x1="296.7" y1="16.6" x2="523.0" y2="306.4"/><line x1="293.4" y1="19.2" x2="519.7" y2="309.0"/><line x1="290.1" y1="21.8" x2="516.4" y2="311.6"/><line x1="286.7" y1="24.4" x2="513.1" y2="314.1"/><line x1="283.4" y1="27.0" x2="509.8" y2="316.7"/><line x1="280.1" y1="29.6" x2="506.5" y2="319.3"/><line x1="276.8" y1="32.1" x2="503.2" y2="321.9"/><line x1="273.5" y1="34.7" x2="499.9" y2="324.5"/><line x1="270.2" y1="37.3" x2="496.6" y2="327.1"/><line x1="266.9" y1="39.9" x2="493.3" y2="329.7"/><line x1="263.6" y1="42.5" x2="490.0" y2="332.2"/><line x1="260.3" y1="45.1" x2="486.6" y2="334.8"/><line x1="257.0" y1="47.7" x2="483.3" y2="337.4"/><line x1="253.6" y1="50.2" x2="480.0" y2="340.0"/><line x1="250.3" y1="52.8" x2="476.7" y2="342.6"/><line x1="247.0" y1="55.4" x2="473.4" y2="345.2"/><line x1="243.7" y1="58.0" x2="470.1" y2="347.8"/><line x1="240.4" y1="60.6" x2="466.8" y2="350.3"/><line x1="237.1" y1="63.2" x2="463.5" y2="352.9"/><line x1="233.8" y1="65.8" x2="460.2" y2="355.5"/><line x1="230.5" y1="68.4" x2="456.9" y2="358.1"/><line x1="227.2" y1="70.9" x2="453.5" y2="360.7"/><line x1="223.9" y1="73.5" x2="450.2" y2="363.3"/><line x1="220.6" y1="76.1" x2="446.9" y2="365.9"/><line x1="217.2" y1="78.7" x2="443.6" y2="368.4"/><line x1="213.9" y1="81.3" x2="440.3" y2="371.0"/><line x1="210.6" y1="83.9" x2="437.0" y2="373.6"/><line x1="207.3" y1="86.5" x2="433.7" y2="376.2"/><line x1="204.0" y1="89.0" x2="430.4" y2="378.8"/><line x1="200.7" y1="91.6" x2="427.1" y2="381.4"/><line x1="197.4" y1="94.2" x2="423.8" y2="384.0"/><line x1="194.1" y1="96.8" x2="420.4" y2="386.5"/><line x1="190.8" y1="99.4" x2="417.1" y2="389.1"/><line x1="187.5" y1="102.0" x2="413.8" y2="391.7"/><line x1="184.1" y1="104.6" x2="410.5" y2="394.3"/><line x1="180.8" y1="107.1" x2="407.2" y2="396.9"/><line x1="177.5" y1="109.7" x2="403.9" y2="399.5"/><line x1="174.2" y1="112.3" x2="400.6" y2="402.1"/><line x1="170.9" y1="114.9" x2="397.3" y2="404.6"/><line x1="167.6" y1="117.5" x2="394.0" y2="407.2"/><line x1="164.3" y1="120.1" x2="390.7" y2="409.8"/><line x1="161.0" y1="122.7" x2="387.4" y2="412.4"/><line x1="157.7" y1="125.2" x2="384.0" y2="415.0"/><line x1="154.4" y1="127.8" x2="380.7" y2="417.6"/></g></g><path d="M 380.39,223.03 L 394.58,229.34 L 391.58,239.55 L 376.24,237.19 L 370.91,245.48 L 379.43,258.46 L 371.39,265.42 L 359.76,255.14 L 350.79,259.24 L 350.94,274.76 L 340.42,276.28 L 336.19,261.33 L 326.43,259.93 L 318.16,273.08 L 308.49,268.66 L 313.01,253.80 L 305.56,247.35 L 291.50,253.94 L 285.75,244.99 L 297.59,234.94 L 294.81,225.48 L 279.42,223.42 L 279.42,212.79 L 294.81,210.73 L 297.59,201.27 L 285.75,191.21 L 291.50,182.27 L 305.56,188.86 L 313.01,182.40 L 308.49,167.55 L 318.16,163.13 L 326.43,176.27 L 336.19,174.87 L 340.42,159.93 L 350.94,161.44 L 350.79,176.97 L 359.76,181.07 L 371.39,170.78 L 379.43,177.75 L 370.91,190.72 L 376.24,199.02 L 391.58,196.66 L 394.58,206.86 L 380.39,213.17 Z" fill="none" stroke="#c9a06a" stroke-width="1.4" opacity="0.6"/><circle cx="337.4239294962435" cy="218.1024729878455" r="43.2" fill="none" stroke="#c9a06a" stroke-width="0.6" opacity="0.3"/><circle cx="337.4239294962435" cy="218.1024729878455" r="15.0" fill="none" stroke="#c9a06a" stroke-width="1" opacity="0.6"/><circle cx="337.4239294962435" cy="218.1024729878455" r="6.0" fill="none" stroke="#c9a06a" stroke-width="0.8" opacity="0.6"/><line x1="351.8" y1="222.3" x2="375.3" y2="229.2" stroke="#c9a06a" stroke-width="0.7" opacity="0.33"/><line x1="341.0" y1="232.7" x2="346.7" y2="256.5" stroke="#c9a06a" stroke-width="0.7" opacity="0.33"/><line x1="326.6" y1="228.5" x2="308.8" y2="245.4" stroke="#c9a06a" stroke-width="0.7" opacity="0.33"/><line x1="323.0" y1="213.9" x2="299.5" y2="207.0" stroke="#c9a06a" stroke-width="0.7" opacity="0.33"/><line x1="333.9" y1="203.5" x2="328.1" y2="179.7" stroke="#c9a06a" stroke-width="0.7" opacity="0.33"/><line x1="348.3" y1="207.8" x2="366.0" y2="190.8" stroke="#c9a06a" stroke-width="0.7" opacity="0.33"/><circle cx="358.8" cy="240.5" r="3.8" fill="none" stroke="#c9a06a" stroke-width="0.6" opacity="0.36"/><circle cx="328.7" cy="247.8" r="3.8" fill="none" stroke="#c9a06a" stroke-width="0.6" opacity="0.36"/><circle cx="307.3" cy="225.4" r="3.8" fill="none" stroke="#c9a06a" stroke-width="0.6" opacity="0.36"/><circle cx="316.0" cy="195.7" r="3.8" fill="none" stroke="#c9a06a" stroke-width="0.6" opacity="0.36"/><circle cx="346.2" cy="188.4" r="3.8" fill="none" stroke="#c9a06a" stroke-width="0.6" opacity="0.36"/><circle cx="367.6" cy="210.8" r="3.8" fill="none" stroke="#c9a06a" stroke-width="0.6" opacity="0.36"/>
<path d="M 154.89,355.19 L 167.79,359.25 L 165.74,369.36 L 152.27,368.08 L 147.35,375.38 L 153.61,387.37 L 145.01,393.07 L 136.40,382.64 L 127.76,384.33 L 123.70,397.23 L 113.59,395.18 L 114.87,381.72 L 107.57,376.80 L 95.58,383.05 L 89.88,374.46 L 100.31,365.84 L 98.62,357.20 L 85.72,353.14 L 87.77,343.03 L 101.23,344.32 L 106.15,337.01 L 99.90,325.02 L 108.49,319.32 L 117.11,329.75 L 125.75,328.06 L 129.81,315.16 L 139.92,317.21 L 138.63,330.68 L 145.94,335.60 L 157.93,329.34 L 163.63,337.94 L 153.20,346.55 Z" fill="none" stroke="#ffce8a" stroke-width="1.4" opacity="0.45"/><circle cx="126.75340230754048" cy="356.19687304303767" r="28.1" fill="none" stroke="#ffce8a" stroke-width="0.6" opacity="0.225"/><circle cx="126.75340230754048" cy="356.19687304303767" r="10.2" fill="none" stroke="#ffce8a" stroke-width="1" opacity="0.45"/><circle cx="126.75340230754048" cy="356.19687304303767" r="4.1" fill="none" stroke="#ffce8a" stroke-width="0.8" opacity="0.45"/><line x1="136.8" y1="358.2" x2="151.2" y2="361.1" stroke="#ffce8a" stroke-width="0.7" opacity="0.24750000000000003"/><line x1="130.0" y1="365.9" x2="134.7" y2="379.8" stroke="#ffce8a" stroke-width="0.7" opacity="0.24750000000000003"/><line x1="120.0" y1="363.8" x2="110.3" y2="374.9" stroke="#ffce8a" stroke-width="0.7" opacity="0.24750000000000003"/><line x1="116.8" y1="354.2" x2="102.3" y2="351.3" stroke="#ffce8a" stroke-width="0.7" opacity="0.24750000000000003"/><line x1="123.5" y1="346.5" x2="118.8" y2="332.6" stroke="#ffce8a" stroke-width="0.7" opacity="0.24750000000000003"/><line x1="133.5" y1="348.6" x2="143.2" y2="337.5" stroke="#ffce8a" stroke-width="0.7" opacity="0.24750000000000003"/><circle cx="142.6" cy="370.2" r="2.5" fill="none" stroke="#ffce8a" stroke-width="0.6" opacity="0.27"/><circle cx="122.6" cy="376.9" r="2.5" fill="none" stroke="#ffce8a" stroke-width="0.6" opacity="0.27"/><circle cx="106.8" cy="362.9" r="2.5" fill="none" stroke="#ffce8a" stroke-width="0.6" opacity="0.27"/><circle cx="111.0" cy="342.2" r="2.5" fill="none" stroke="#ffce8a" stroke-width="0.6" opacity="0.27"/><circle cx="130.9" cy="335.5" r="2.5" fill="none" stroke="#ffce8a" stroke-width="0.6" opacity="0.27"/><circle cx="146.7" cy="349.5" r="2.5" fill="none" stroke="#ffce8a" stroke-width="0.6" opacity="0.27"/>
<circle cx="250" cy="330" r="92" fill="none" stroke="#ffce8a" stroke-width="0.5" opacity="0.28" stroke-dasharray="3 4"/>
<g fill="none" stroke="#a37e50" stroke-width="0.5" opacity="0.3" stroke-dasharray="2 4">
<path d="M 158 330 A 92 92 0 0 1 250 238"/>
<circle cx="250" cy="330" r="1.6" stroke="none" fill="#a37e50" opacity="0.6"/>
<circle cx="337.4" cy="218.1" r="1.6" stroke="none" fill="#a37e50" opacity="0.6"/>
</g>
<line x1="152.1" y1="284.4" x2="120" y2="166" stroke="#a37e50" stroke-width="0.5" opacity="0.4"/>
<circle cx="92" cy="150" r="40" fill="none" stroke="#c9a06a" stroke-width="0.9" opacity="0.5"/>
<path d="M 78.00,172.00 L 83.00,136.00 L 88.00,128.00 L 96.00,128.00 L 101.00,136.00 L 106.00,172.00" fill="none" stroke="#e8c79a" stroke-width="1" opacity="0.7"/>
<g clip-path="url(#cgT)" />
<g stroke="#b78a55" stroke-width="0.4" opacity="0.3">
<line x1="80" y1="132" x2="104" y2="140"/>
<line x1="80" y1="135" x2="104" y2="143"/>
<line x1="80" y1="138" x2="104" y2="146"/>
<line x1="80" y1="141" x2="104" y2="149"/>
<line x1="80" y1="144" x2="104" y2="152"/>
<line x1="80" y1="147" x2="104" y2="155"/>
<line x1="80" y1="150" x2="104" y2="158"/>
<line x1="80" y1="153" x2="104" y2="161"/>
<line x1="80" y1="156" x2="104" y2="164"/>
<line x1="80" y1="159" x2="104" y2="167"/>
<line x1="80" y1="162" x2="104" y2="170"/>
<line x1="80" y1="165" x2="104" y2="173"/>
<line x1="80" y1="168" x2="104" y2="176"/>
<line x1="80" y1="171" x2="104" y2="179"/>
</g>
<line x1="72" y1="178" x2="112" y2="178" stroke="#ffce8a" stroke-width="0.5" opacity="0.5"/>
<line x1="72" y1="175" x2="72" y2="181" stroke="#ffce8a" stroke-width="0.5" opacity="0.5"/>
<line x1="112" y1="175" x2="112" y2="181" stroke="#ffce8a" stroke-width="0.5" opacity="0.5"/>
<path d="M 250 330 L 250 178 L 300 158" fill="none" stroke="#c9a06a" stroke-width="1.1" opacity="0.5"/>
<g stroke="#68e3ff" stroke-width="0.6" opacity="0.4" fill="none">
<line x1="300" y1="138" x2="210" y2="300"/>
<line x1="300" y1="138" x2="250" y2="238"/>
<line x1="300" y1="138" x2="290" y2="300"/>
</g>
<circle cx="300" cy="138" r="30" fill="url(#iris)" filter="url(#soft)"/>
<circle cx="300" cy="138" r="22" fill="none" stroke="#68e3ff" stroke-width="1.3" opacity="0.85"/>
<circle cx="300" cy="138" r="15" fill="none" stroke="#e8c79a" stroke-width="0.7" opacity="0.5"/>
<line x1="315.0" y1="138.0" x2="322.0" y2="138.0" stroke="#68e3ff" stroke-width="0.6" opacity="0.6"/>
<line x1="313.0" y1="145.5" x2="319.1" y2="149.0" stroke="#68e3ff" stroke-width="0.6" opacity="0.6"/>
<line x1="307.5" y1="151.0" x2="311.0" y2="157.1" stroke="#68e3ff" stroke-width="0.6" opacity="0.6"/>
<line x1="300.0" y1="153.0" x2="300.0" y2="160.0" stroke="#68e3ff" stroke-width="0.6" opacity="0.6"/>
<line x1="292.5" y1="151.0" x2="289.0" y2="157.1" stroke="#68e3ff" stroke-width="0.6" opacity="0.6"/>
<line x1="287.0" y1="145.5" x2="280.9" y2="149.0" stroke="#68e3ff" stroke-width="0.6" opacity="0.6"/>
<line x1="285.0" y1="138.0" x2="278.0" y2="138.0" stroke="#68e3ff" stroke-width="0.6" opacity="0.6"/>
<line x1="287.0" y1="130.5" x2="280.9" y2="127.0" stroke="#68e3ff" stroke-width="0.6" opacity="0.6"/>
<line x1="292.5" y1="125.0" x2="289.0" y2="118.9" stroke="#68e3ff" stroke-width="0.6" opacity="0.6"/>
<line x1="300.0" y1="123.0" x2="300.0" y2="116.0" stroke="#68e3ff" stroke-width="0.6" opacity="0.6"/>
<line x1="307.5" y1="125.0" x2="311.0" y2="118.9" stroke="#68e3ff" stroke-width="0.6" opacity="0.6"/>
<line x1="313.0" y1="130.5" x2="319.1" y2="127.0" stroke="#68e3ff" stroke-width="0.6" opacity="0.6"/>
<circle cx="300" cy="138" r="4.5" fill="#68e3ff" filter="url(#g)"/>
<line x1="96" y1="506" x2="444" y2="506" stroke="#a37e50" stroke-width="0.5" opacity="0.35"/>
<path d="M 96.00,506.00 L 98.17,501.07 L 100.35,496.43 L 102.53,492.16 L 104.70,488.37 L 106.88,485.14 L 109.05,482.52 L 111.22,480.55 L 113.40,479.28 L 115.58,478.69 L 117.75,478.80 L 119.92,479.57 L 122.10,480.96 L 124.28,482.92 L 126.45,485.38 L 128.62,488.27 L 130.80,491.50 L 132.97,494.98 L 135.15,498.62 L 137.32,502.32 L 139.50,506.00 L 141.68,509.56 L 143.85,512.92 L 146.03,516.00 L 148.20,518.73 L 150.38,521.07 L 152.55,522.97 L 154.72,524.39 L 156.90,525.31 L 159.07,525.73 L 161.25,525.65 L 163.43,525.10 L 165.60,524.09 L 167.77,522.68 L 169.95,520.90 L 172.12,518.81 L 174.30,516.48 L 176.48,513.96 L 178.65,511.33 L 180.82,508.66 L 183.00,506.00 L 185.18,503.43 L 187.35,501.00 L 189.52,498.78 L 191.70,496.80 L 193.88,495.11 L 196.05,493.74 L 198.23,492.72 L 200.40,492.05 L 202.57,491.75 L 204.75,491.80 L 206.93,492.20 L 209.10,492.93 L 211.27,493.95 L 213.45,495.23 L 215.62,496.74 L 217.80,498.43 L 219.98,500.25 L 222.15,502.15 L 224.33,504.08 L 226.50,506.00 L 228.67,507.86 L 230.85,509.61 L 233.03,511.22 L 235.20,512.65 L 237.38,513.87 L 239.55,514.86 L 241.72,515.60 L 243.90,516.08 L 246.08,516.30 L 248.25,516.26 L 250.42,515.97 L 252.60,515.45 L 254.78,514.71 L 256.95,513.78 L 259.12,512.69 L 261.30,511.47 L 263.48,510.16 L 265.65,508.78 L 267.83,507.39 L 270.00,506.00 L 272.17,504.66 L 274.35,503.39 L 276.52,502.23 L 278.70,501.20 L 280.88,500.31 L 283.05,499.60 L 285.23,499.06 L 287.40,498.72 L 289.58,498.56 L 291.75,498.59 L 293.92,498.80 L 296.10,499.18 L 298.27,499.71 L 300.45,500.38 L 302.62,501.17 L 304.80,502.05 L 306.98,503.00 L 309.15,503.99 L 311.33,505.00 L 313.50,506.00 L 315.67,506.97 L 317.85,507.88 L 320.02,508.72 L 322.20,509.47 L 324.38,510.11 L 326.55,510.62 L 328.73,511.01 L 330.90,511.26 L 333.08,511.38 L 335.25,511.36 L 337.42,511.20 L 339.60,510.93 L 341.77,510.55 L 343.95,510.06 L 346.12,509.49 L 348.30,508.86 L 350.48,508.17 L 352.65,507.45 L 354.82,506.72 L 357.00,506.00 L 359.18,505.30 L 361.35,504.64 L 363.53,504.03 L 365.70,503.49 L 367.88,503.03 L 370.05,502.66 L 372.22,502.38 L 374.40,502.20 L 376.57,502.12 L 378.75,502.13 L 380.93,502.24 L 383.10,502.44 L 385.28,502.72 L 387.45,503.07 L 389.62,503.48 L 391.80,503.94 L 393.97,504.43 L 396.15,504.95 L 398.32,505.48 L 400.50,506.00 L 402.68,506.51 L 404.85,506.98 L 407.03,507.42 L 409.20,507.81 L 411.38,508.14 L 413.55,508.41 L 415.72,508.62 L 417.90,508.75 L 420.07,508.81 L 422.25,508.80 L 424.43,508.72 L 426.60,508.57 L 428.78,508.37 L 430.95,508.12 L 433.12,507.82 L 435.30,507.49 L 437.47,507.13 L 439.65,506.76 L 441.82,506.38 L 444.00,506.00" fill="none" stroke="#ffce8a" stroke-width="1.1" opacity="0.6"/>
<path d="M 96.00,474.00 L 98.17,474.52 L 100.35,475.02 L 102.53,475.52 L 104.70,476.01 L 106.88,476.50 L 109.05,476.97 L 111.22,477.44 L 113.40,477.90 L 115.58,478.35 L 117.75,478.80 L 119.92,479.24 L 122.10,479.67 L 124.28,480.09 L 126.45,480.51 L 128.62,480.92 L 130.80,481.33 L 132.97,481.72 L 135.15,482.12 L 137.32,482.50 L 139.50,482.88 L 141.68,483.25 L 143.85,483.62 L 146.03,483.98 L 148.20,484.33 L 150.38,484.68 L 152.55,485.03 L 154.72,485.37 L 156.90,485.70 L 159.07,486.02 L 161.25,486.35 L 163.43,486.66 L 165.60,486.98 L 167.77,487.28 L 169.95,487.58 L 172.12,487.88 L 174.30,488.17 L 176.48,488.46 L 178.65,488.74 L 180.82,489.02 L 183.00,489.29 L 185.18,489.56 L 187.35,489.83 L 189.52,490.09 L 191.70,490.35 L 193.88,490.60 L 196.05,490.85 L 198.23,491.09 L 200.40,491.33 L 202.57,491.57 L 204.75,491.80 L 206.93,492.03 L 209.10,492.25 L 211.27,492.48 L 213.45,492.69 L 215.62,492.91 L 217.80,493.12 L 219.98,493.33 L 222.15,493.53 L 224.33,493.73 L 226.50,493.93 L 228.67,494.12 L 230.85,494.32 L 233.03,494.50 L 235.20,494.69 L 237.38,494.87 L 239.55,495.05 L 241.72,495.23 L 243.90,495.40 L 246.08,495.57 L 248.25,495.74 L 250.42,495.91 L 252.60,496.07 L 254.78,496.23 L 256.95,496.39 L 259.12,496.54 L 261.30,496.69 L 263.48,496.84 L 265.65,496.99 L 267.83,497.14 L 270.00,497.28 L 272.17,497.42 L 274.35,497.56 L 276.52,497.69 L 278.70,497.83 L 280.88,497.96 L 283.05,498.09 L 285.23,498.22 L 287.40,498.34 L 289.58,498.47 L 291.75,498.59 L 293.92,498.71 L 296.10,498.82 L 298.27,498.94 L 300.45,499.05 L 302.62,499.17 L 304.80,499.28 L 306.98,499.38 L 309.15,499.49 L 311.33,499.60 L 313.50,499.70 L 315.67,499.80 L 317.85,499.90 L 320.02,500.00 L 322.20,500.10 L 324.38,500.19 L 326.55,500.28 L 328.73,500.38 L 330.90,500.47 L 333.08,500.56 L 335.25,500.64 L 337.42,500.73 L 339.60,500.82 L 341.77,500.90 L 343.95,500.98 L 346.12,501.06 L 348.30,501.14 L 350.48,501.22 L 352.65,501.30 L 354.82,501.37 L 357.00,501.45 L 359.18,501.52 L 361.35,501.59 L 363.53,501.66 L 365.70,501.73 L 367.88,501.80 L 370.05,501.87 L 372.22,501.94 L 374.40,502.00 L 376.57,502.07 L 378.75,502.13 L 380.93,502.19 L 383.10,502.25 L 385.28,502.31 L 387.45,502.37 L 389.62,502.43 L 391.80,502.49 L 393.97,502.55 L 396.15,502.60 L 398.32,502.66 L 400.50,502.71 L 402.68,502.76 L 404.85,502.82 L 407.03,502.87 L 409.20,502.92 L 411.38,502.97 L 413.55,503.02 L 415.72,503.06 L 417.90,503.11 L 420.07,503.16 L 422.25,503.20 L 424.43,503.25 L 426.60,503.29 L 428.78,503.34 L 430.95,503.38 L 433.12,503.42 L 435.30,503.46 L 437.47,503.50 L 439.65,503.54 L 441.82,503.58 L 444.00,503.62" fill="none" stroke="#ffce8a" stroke-width="0.5" opacity="0.28" stroke-dasharray="3 3"/>
<g stroke="#ffce8a" stroke-width="0.6" fill="none" opacity="0.5">
<polygon points="458.00,447.00 481.78,464.27 472.69,492.23 443.31,492.23 434.22,464.27"/>
<polygon points="466.82,459.86 472.27,476.64 458.00,487.00 443.73,476.64 449.18,459.86" opacity="0.7"/>
<line x1="458.0" y1="447.0" x2="466.8" y2="459.9"/>
<line x1="458.0" y1="447.0" x2="449.2" y2="459.9"/>
<line x1="481.8" y1="464.3" x2="472.3" y2="476.6"/>
<line x1="481.8" y1="464.3" x2="466.8" y2="459.9"/>
<line x1="472.7" y1="492.2" x2="458.0" y2="487.0"/>
<line x1="472.7" y1="492.2" x2="472.3" y2="476.6"/>
<line x1="443.3" y1="492.2" x2="443.7" y2="476.6"/>
<line x1="443.3" y1="492.2" x2="458.0" y2="487.0"/>
<line x1="434.2" y1="464.3" x2="449.2" y2="459.9"/>
<line x1="434.2" y1="464.3" x2="443.7" y2="476.6"/>
</g>
<line x1="502" y1="108" x2="502" y2="506" stroke="#ffce8a" stroke-width="0.6" opacity="0.4"/>
<line x1="498" y1="108.0" x2="506" y2="108.0" stroke="#ffce8a" stroke-width="0.9" opacity="0.6"/>
<line x1="498" y1="506.0" x2="506" y2="506.0" stroke="#ffce8a" stroke-width="0.9" opacity="0.6"/>
<line x1="498" y1="260.0" x2="506" y2="260.0" stroke="#ffce8a" stroke-width="0.9" opacity="0.6"/>
<text x="490" y="255.0" font-family="Georgia, serif" font-style="italic" font-size="14" fill="#ffce8a" opacity="0.8" text-anchor="end">&#966;</text>
<g transform="translate(800,0) scale(-1,1)" stroke="#c9a06a" fill="none" opacity="0.32">
<path d="M 360.0 96.0 Q 362.0 95.0 364.0 96.0 Q 366.0 93.4 368.0 96.0 Q 370.0 95.0 372.0 96.0 Q 374.0 93.4 376.0 96.0 Q 378.0 95.0 380.0 96.0 Q 382.0 93.4 384.0 96.0 Q 386.0 95.0 388.0 96.0 Q 390.0 93.4 392.0 96.0 Q 394.0 95.0 396.0 96.0 Q 398.0 93.4 400.0 96.0 Q 402.0 95.0 404.0 96.0 Q 406.0 93.4 408.0 96.0 Q 410.0 95.0 412.0 96.0 Q 414.0 93.4 416.0 96.0 Q 418.0 95.0 420.0 96.0 Q 422.0 93.4 424.0 96.0 Q 426.0 95.0 428.0 96.0 Q 430.0 93.4 432.0 96.0 Q 434.0 95.0 436.0 96.0" stroke-width="0.7"/>
<path d="M 360.0 106.0 Q 362.0 105.0 364.0 106.0 Q 366.0 103.4 368.0 106.0 Q 370.0 105.0 372.0 106.0 Q 374.0 103.4 376.0 106.0 Q 378.0 105.0 380.0 106.0 Q 382.0 103.4 384.0 106.0 Q 386.0 105.0 388.0 106.0 Q 390.0 103.4 392.0 106.0 Q 394.0 105.0 396.0 106.0 Q 398.0 103.4 400.0 106.0 Q 402.0 105.0 404.0 106.0 Q 406.0 103.4 408.0 106.0 Q 410.0 105.0 412.0 106.0 Q 414.0 103.4 416.0 106.0 Q 418.0 105.0 420.0 106.0 Q 422.0 103.4 424.0 106.0 Q 426.0 105.0 428.0 106.0 Q 430.0 103.4 432.0 106.0 Q 434.0 105.0 436.0 106.0 Q 438.0 103.4 440.0 106.0 Q 442.0 105.0 444.0 106.0" stroke-width="0.7"/>
<path d="M 360.0 116.0 Q 362.0 115.0 364.0 116.0 Q 366.0 113.4 368.0 116.0 Q 370.0 115.0 372.0 116.0 Q 374.0 113.4 376.0 116.0 Q 378.0 115.0 380.0 116.0 Q 382.0 113.4 384.0 116.0 Q 386.0 115.0 388.0 116.0 Q 390.0 113.4 392.0 116.0 Q 394.0 115.0 396.0 116.0 Q 398.0 113.4 400.0 116.0 Q 402.0 115.0 404.0 116.0 Q 406.0 113.4 408.0 116.0 Q 410.0 115.0 412.0 116.0 Q 414.0 113.4 416.0 116.0 Q 418.0 115.0 420.0 116.0 Q 422.0 113.4 424.0 116.0 Q 426.0 115.0 428.0 116.0" stroke-width="0.7"/>
<path d="M 360.0 126.0 Q 362.0 125.0 364.0 126.0 Q 366.0 123.4 368.0 126.0 Q 370.0 125.0 372.0 126.0 Q 374.0 123.4 376.0 126.0 Q 378.0 125.0 380.0 126.0 Q 382.0 123.4 384.0 126.0 Q 386.0 125.0 388.0 126.0 Q 390.0 123.4 392.0 126.0 Q 394.0 125.0 396.0 126.0 Q 398.0 123.4 400.0 126.0 Q 402.0 125.0 404.0 126.0 Q 406.0 123.4 408.0 126.0 Q 410.0 125.0 412.0 126.0 Q 414.0 123.4 416.0 126.0 Q 418.0 125.0 420.0 126.0 Q 422.0 123.4 424.0 126.0 Q 426.0 125.0 428.0 126.0 Q 430.0 123.4 432.0 126.0 Q 434.0 125.0 436.0 126.0 Q 438.0 123.4 440.0 126.0" stroke-width="0.7"/>
</g>
<g transform="translate(300,0) scale(-1,1)"><text x="120" y="250" font-family="Georgia, serif" font-style="italic" font-size="13" fill="#c9a06a" opacity="0.4">proporzione</text></g>
<g transform="translate(720,0) scale(-1,1)"><text x="330" y="470" font-family="Georgia, serif" font-style="italic" font-size="12" fill="#c9a06a" opacity="0.4">il moto</text></g>
</svg>